<mxfile host="Electron" agent="Mozilla/5.0 (Windows NT 10.0; Win64; x64) AppleWebKit/537.36 (KHTML, like Gecko) draw.io/28.1.2 Chrome/138.0.7204.243 Electron/37.4.0 Safari/537.36" version="28.1.2" pages="2">
  <diagram name="E triangle" id="wS_12mKajjzTXa4NmzNa">
    <mxGraphModel dx="709" dy="428" grid="1" gridSize="10" guides="1" tooltips="1" connect="1" arrows="1" fold="1" page="1" pageScale="1" pageWidth="850" pageHeight="1100" math="1" shadow="0">
      <root>
        <mxCell id="0" />
        <mxCell id="1" parent="0" />
        <mxCell id="q6GF_irBLnhFOgm4JBGM-1" value="&lt;font&gt;$$V$$&lt;/font&gt;" style="ellipse;whiteSpace=wrap;html=1;aspect=fixed;strokeWidth=3;fontSize=24;" parent="1" vertex="1">
          <mxGeometry x="520" y="360" width="60" height="60" as="geometry" />
        </mxCell>
        <mxCell id="q6GF_irBLnhFOgm4JBGM-2" value="&lt;font&gt;$$Q$$&lt;/font&gt;" style="ellipse;whiteSpace=wrap;html=1;aspect=fixed;strokeWidth=3;fontSize=24;" parent="1" vertex="1">
          <mxGeometry x="370" y="140" width="60" height="60" as="geometry" />
        </mxCell>
        <mxCell id="q6GF_irBLnhFOgm4JBGM-3" value="&lt;font&gt;$$\vec{E}$$&lt;/font&gt;" style="ellipse;whiteSpace=wrap;html=1;aspect=fixed;strokeWidth=3;fontSize=24;" parent="1" vertex="1">
          <mxGeometry x="220" y="360" width="60" height="60" as="geometry" />
        </mxCell>
        <mxCell id="q6GF_irBLnhFOgm4JBGM-4" value="" style="endArrow=none;html=1;rounded=0;endSize=6;strokeWidth=3;startArrow=classic;startFill=1;endFill=0;strokeColor=#4169E1;" parent="1" edge="1">
          <mxGeometry width="50" height="50" relative="1" as="geometry">
            <mxPoint x="425" y="203" as="sourcePoint" />
            <mxPoint x="526" y="360" as="targetPoint" />
          </mxGeometry>
        </mxCell>
        <mxCell id="q6GF_irBLnhFOgm4JBGM-6" value="" style="endArrow=classic;html=1;rounded=0;endSize=6;strokeWidth=3;startSize=6;startArrow=none;startFill=0;endFill=1;strokeColor=#FF0000;" parent="1" edge="1">
          <mxGeometry width="50" height="50" relative="1" as="geometry">
            <mxPoint x="436" y="198" as="sourcePoint" />
            <mxPoint x="538" y="353" as="targetPoint" />
          </mxGeometry>
        </mxCell>
        <mxCell id="q6GF_irBLnhFOgm4JBGM-7" value="" style="endArrow=none;html=1;rounded=0;endSize=6;strokeWidth=3;startArrow=classic;startFill=1;endFill=0;strokeColor=#4169E1;" parent="1" edge="1">
          <mxGeometry width="50" height="50" relative="1" as="geometry">
            <mxPoint x="377" y="204" as="sourcePoint" />
            <mxPoint x="276" y="361" as="targetPoint" />
          </mxGeometry>
        </mxCell>
        <mxCell id="q6GF_irBLnhFOgm4JBGM-8" value="" style="endArrow=classic;html=1;rounded=0;endSize=6;strokeWidth=3;startSize=6;startArrow=none;startFill=0;endFill=1;strokeColor=#FF0000;" parent="1" edge="1">
          <mxGeometry width="50" height="50" relative="1" as="geometry">
            <mxPoint x="363" y="197" as="sourcePoint" />
            <mxPoint x="261" y="352" as="targetPoint" />
          </mxGeometry>
        </mxCell>
        <mxCell id="q6GF_irBLnhFOgm4JBGM-9" value="" style="endArrow=none;html=1;rounded=0;endSize=6;strokeWidth=3;strokeColor=#9ACD32;startArrow=classic;startFill=1;endFill=0;" parent="1" edge="1">
          <mxGeometry width="50" height="50" relative="1" as="geometry">
            <mxPoint x="290" y="394" as="sourcePoint" />
            <mxPoint x="510" y="394" as="targetPoint" />
          </mxGeometry>
        </mxCell>
        <mxCell id="q6GF_irBLnhFOgm4JBGM-10" value="" style="endArrow=classic;html=1;rounded=0;endSize=6;strokeWidth=3;startSize=6;startArrow=none;startFill=0;endFill=1;" parent="1" edge="1">
          <mxGeometry width="50" height="50" relative="1" as="geometry">
            <mxPoint x="290" y="410" as="sourcePoint" />
            <mxPoint x="510" y="410" as="targetPoint" />
          </mxGeometry>
        </mxCell>
        <mxCell id="q6GF_irBLnhFOgm4JBGM-13" value="$$\nabla \cdot&amp;nbsp; \vec{E} = \frac{Q}{\epsilon_0}$$" style="text;html=1;align=center;verticalAlign=middle;whiteSpace=wrap;rounded=0;fontSize=12;rotation=-56.9;fontColor=#4169E1;fontStyle=0" parent="1" vertex="1">
          <mxGeometry x="297" y="282" width="90" height="30" as="geometry" />
        </mxCell>
        <mxCell id="q6GF_irBLnhFOgm4JBGM-15" value="$$\nabla^2&amp;nbsp; V = -\frac{Q}{\epsilon_0}$$" style="text;html=1;align=center;verticalAlign=middle;whiteSpace=wrap;rounded=0;fontSize=12;rotation=57.5;fontColor=#4169E1;" parent="1" vertex="1">
          <mxGeometry x="415.9954516700501" y="282.0039167727034" width="90" height="30" as="geometry" />
        </mxCell>
        <mxCell id="q6GF_irBLnhFOgm4JBGM-17" value="$$\vec{E} = -\nabla V$$" style="text;html=1;align=center;verticalAlign=middle;whiteSpace=wrap;rounded=0;fontColor=#9ACD32;" parent="1" vertex="1">
          <mxGeometry x="374" y="364" width="60" height="30" as="geometry" />
        </mxCell>
        <mxCell id="q6GF_irBLnhFOgm4JBGM-18" value="$$V = -\int_\infty \vec{E}\cdot d\vec{l} $$" style="text;html=1;align=center;verticalAlign=middle;whiteSpace=wrap;rounded=0;" parent="1" vertex="1">
          <mxGeometry x="351" y="420" width="106" height="30" as="geometry" />
        </mxCell>
        <mxCell id="q6GF_irBLnhFOgm4JBGM-20" value="Coulomb&#39;s Law (Only if \(V_\infty=0\))" style="text;html=1;align=center;verticalAlign=middle;whiteSpace=wrap;rounded=0;fontColor=#FF0000;fontStyle=1;rotation=-56.7;" parent="1" vertex="1">
          <mxGeometry x="197" y="245.99999999999997" width="197" height="30" as="geometry" />
        </mxCell>
        <mxCell id="q6GF_irBLnhFOgm4JBGM-21" value="Coulomb&#39;s Law (Only if \(V_\infty=0\))" style="text;html=1;align=center;verticalAlign=middle;whiteSpace=wrap;rounded=0;fontColor=#FF0000;fontStyle=1;rotation=56.8;" parent="1" vertex="1">
          <mxGeometry x="405" y="248" width="190" height="30" as="geometry" />
        </mxCell>
      </root>
    </mxGraphModel>
  </diagram>
  <diagram name="B triangle" id="8leaiZqmliVL3SZiJN0X">
    <mxGraphModel dx="490" dy="295" grid="1" gridSize="10" guides="1" tooltips="1" connect="1" arrows="1" fold="1" page="1" pageScale="1" pageWidth="850" pageHeight="1100" math="1" shadow="0">
      <root>
        <mxCell id="B5mAyORG0Gp0-tcMum76-0" />
        <mxCell id="B5mAyORG0Gp0-tcMum76-1" parent="B5mAyORG0Gp0-tcMum76-0" />
        <mxCell id="B5mAyORG0Gp0-tcMum76-2" value="&lt;font&gt;$$\vec{A}$$&lt;/font&gt;" style="ellipse;whiteSpace=wrap;html=1;aspect=fixed;strokeWidth=3;fontSize=24;" parent="B5mAyORG0Gp0-tcMum76-1" vertex="1">
          <mxGeometry x="520" y="360" width="60" height="60" as="geometry" />
        </mxCell>
        <mxCell id="B5mAyORG0Gp0-tcMum76-3" value="&lt;font&gt;$$\vec{J}$$&lt;/font&gt;" style="ellipse;whiteSpace=wrap;html=1;aspect=fixed;strokeWidth=3;fontSize=24;" parent="B5mAyORG0Gp0-tcMum76-1" vertex="1">
          <mxGeometry x="370" y="140" width="60" height="60" as="geometry" />
        </mxCell>
        <mxCell id="B5mAyORG0Gp0-tcMum76-4" value="&lt;font&gt;$$\vec{B}$$&lt;/font&gt;" style="ellipse;whiteSpace=wrap;html=1;aspect=fixed;strokeWidth=3;fontSize=24;" parent="B5mAyORG0Gp0-tcMum76-1" vertex="1">
          <mxGeometry x="220" y="360" width="60" height="60" as="geometry" />
        </mxCell>
        <mxCell id="B5mAyORG0Gp0-tcMum76-5" value="" style="endArrow=none;html=1;rounded=0;endSize=6;strokeWidth=3;startArrow=classic;startFill=1;endFill=0;strokeColor=#4169E1;" parent="B5mAyORG0Gp0-tcMum76-1" edge="1">
          <mxGeometry width="50" height="50" relative="1" as="geometry">
            <mxPoint x="425" y="203" as="sourcePoint" />
            <mxPoint x="526" y="360" as="targetPoint" />
          </mxGeometry>
        </mxCell>
        <mxCell id="B5mAyORG0Gp0-tcMum76-6" value="" style="endArrow=classic;html=1;rounded=0;endSize=6;strokeWidth=3;startSize=6;startArrow=none;startFill=0;endFill=1;strokeColor=#FF0000;" parent="B5mAyORG0Gp0-tcMum76-1" edge="1">
          <mxGeometry width="50" height="50" relative="1" as="geometry">
            <mxPoint x="436" y="198" as="sourcePoint" />
            <mxPoint x="538" y="353" as="targetPoint" />
          </mxGeometry>
        </mxCell>
        <mxCell id="B5mAyORG0Gp0-tcMum76-7" value="" style="endArrow=none;html=1;rounded=0;endSize=6;strokeWidth=3;startArrow=classic;startFill=1;endFill=0;strokeColor=#4169E1;" parent="B5mAyORG0Gp0-tcMum76-1" edge="1">
          <mxGeometry width="50" height="50" relative="1" as="geometry">
            <mxPoint x="377" y="204" as="sourcePoint" />
            <mxPoint x="276" y="361" as="targetPoint" />
          </mxGeometry>
        </mxCell>
        <mxCell id="B5mAyORG0Gp0-tcMum76-8" value="" style="endArrow=classic;html=1;rounded=0;endSize=6;strokeWidth=3;startSize=6;startArrow=none;startFill=0;endFill=1;strokeColor=#FF0000;" parent="B5mAyORG0Gp0-tcMum76-1" edge="1">
          <mxGeometry width="50" height="50" relative="1" as="geometry">
            <mxPoint x="363" y="197" as="sourcePoint" />
            <mxPoint x="261" y="352" as="targetPoint" />
          </mxGeometry>
        </mxCell>
        <mxCell id="B5mAyORG0Gp0-tcMum76-9" value="" style="endArrow=none;html=1;rounded=0;endSize=6;strokeWidth=3;strokeColor=#9ACD32;startArrow=classic;startFill=1;endFill=0;" parent="B5mAyORG0Gp0-tcMum76-1" edge="1">
          <mxGeometry width="50" height="50" relative="1" as="geometry">
            <mxPoint x="290" y="394" as="sourcePoint" />
            <mxPoint x="510" y="394" as="targetPoint" />
          </mxGeometry>
        </mxCell>
        <mxCell id="B5mAyORG0Gp0-tcMum76-10" value="" style="endArrow=classic;html=1;rounded=0;endSize=6;strokeWidth=3;startSize=6;startArrow=none;startFill=0;endFill=1;" parent="B5mAyORG0Gp0-tcMum76-1" edge="1">
          <mxGeometry width="50" height="50" relative="1" as="geometry">
            <mxPoint x="290" y="410" as="sourcePoint" />
            <mxPoint x="510" y="410" as="targetPoint" />
          </mxGeometry>
        </mxCell>
        <mxCell id="B5mAyORG0Gp0-tcMum76-11" value="$$\nabla \times&amp;nbsp; \vec{B} = \mu_0 \vec{J}$$" style="text;html=1;align=center;verticalAlign=middle;whiteSpace=wrap;rounded=0;fontSize=12;rotation=-56.9;fontColor=#4169E1;" parent="B5mAyORG0Gp0-tcMum76-1" vertex="1">
          <mxGeometry x="291" y="280" width="90" height="30" as="geometry" />
        </mxCell>
        <mxCell id="B5mAyORG0Gp0-tcMum76-12" value="$$\nabla^2&amp;nbsp; \vec{A} = - \mu_0 \vec{J}$$" style="text;html=1;align=center;verticalAlign=middle;whiteSpace=wrap;rounded=0;fontSize=12;rotation=57.5;fontColor=#4169E1;" parent="B5mAyORG0Gp0-tcMum76-1" vertex="1">
          <mxGeometry x="421.9954516700501" y="280.0039167727034" width="90" height="30" as="geometry" />
        </mxCell>
        <mxCell id="B5mAyORG0Gp0-tcMum76-13" value="$$\vec{B} = \nabla\times \vec{A}$$" style="text;html=1;align=center;verticalAlign=middle;whiteSpace=wrap;rounded=0;fontColor=#9ACD32;" parent="B5mAyORG0Gp0-tcMum76-1" vertex="1">
          <mxGeometry x="374" y="364" width="60" height="30" as="geometry" />
        </mxCell>
        <mxCell id="B5mAyORG0Gp0-tcMum76-14" value="(No formula)" style="text;html=1;align=center;verticalAlign=middle;whiteSpace=wrap;rounded=0;" parent="B5mAyORG0Gp0-tcMum76-1" vertex="1">
          <mxGeometry x="344.5" y="410" width="119" height="30" as="geometry" />
        </mxCell>
        <mxCell id="B5mAyORG0Gp0-tcMum76-15" value="Biot-Savat Law (Only if \(\nabla\cdot\vec{A}=0\))" style="text;html=1;align=center;verticalAlign=middle;whiteSpace=wrap;rounded=0;fontColor=#FF0000;fontStyle=1;rotation=-56.7;" parent="B5mAyORG0Gp0-tcMum76-1" vertex="1">
          <mxGeometry x="193" y="246.00000000000003" width="200" height="30" as="geometry" />
        </mxCell>
        <mxCell id="B5mAyORG0Gp0-tcMum76-16" value="Biot-Savat Law (Only if \(\nabla\cdot\vec{A}=0\))" style="text;html=1;align=center;verticalAlign=middle;whiteSpace=wrap;rounded=0;fontColor=#FF0000;fontStyle=1;rotation=56.8;" parent="B5mAyORG0Gp0-tcMum76-1" vertex="1">
          <mxGeometry x="404" y="247.00000000000003" width="201" height="30" as="geometry" />
        </mxCell>
      </root>
    </mxGraphModel>
  </diagram>
</mxfile>
